<?xml version="1.0" encoding="utf-8"?>
<!-- Generator: Adobe Illustrator 19.2.1, SVG Export Plug-In . SVG Version: 6.00 Build 0)  -->
<svg version="1.1" id="layer" xmlns="http://www.w3.org/2000/svg" xmlns:xlink="http://www.w3.org/1999/xlink" x="0px" y="0px"
	 viewBox="0 0 652 652" style="enable-background:new 0 0 652 652;" xml:space="preserve">
<style type="text/css">
	.st0{fill:#DC5D54;}
</style>
<g id="Page-1">
	<g id="logo">
		<path id="Fill-13" d="M625.3,313.9l-14.7,48.4H593l-8-27.5l-8,27.5h-17.6l-14.7-48.4h15.5l8.7,30.6h0.4l9-30.6h13.6l9,30.6h0.4
			l8.7-30.6H625.3L625.3,313.9z"/>
		<path id="Fill-11" d="M520.8,351.1c6.1,0,10.2-4.9,10.2-12.9c0-8.3-4.2-13.1-10.2-13.1c-6.3,0-10.5,4.8-10.5,13.1
			C510.3,346.2,514.5,351.1,520.8,351.1 M520.8,313c15.1,0,26.8,9.3,26.8,25c0,15.6-11.8,25.2-26.8,25.2c-15.5,0-27.1-9.6-27.1-25.2
			C493.7,322.4,505.2,313,520.8,313"/>
		<path id="Fill-9" d="M451.3,297.1L474,336h0.2l-0.7-18.6v-20.3H490v65.1h-17.1l-17.8-30.5l-5-9.6h-0.2l0.7,18.9v21.2h-16.6v-65.1
			H451.3L451.3,297.1z"/>
		<path id="Fill-7" d="M431.8,313.9L417,362.3h-17.6l-8-27.5l-8,27.5h-17.6l-14.7-48.4h15.5l8.7,30.6h0.4l9-30.6h13.6l9,30.6h0.4
			l8.7-30.6H431.8L431.8,313.9z"/>
		<path id="Fill-5" d="M327.3,351.1c6.1,0,10.2-4.9,10.2-12.9c0-8.3-4.2-13.1-10.2-13.1c-6.3,0-10.5,4.8-10.5,13.1
			C316.7,346.2,320.9,351.1,327.3,351.1 M327.3,313c15.1,0,26.8,9.3,26.8,25c0,15.6-11.8,25.2-26.8,25.2c-15.5,0-27.1-9.6-27.1-25.2
			C300.2,322.4,311.7,313,327.3,313"/>
		<path id="Fill-3" d="M268.7,294.2v24.6c1.9-2.9,5.6-5.8,11.4-5.8c7.4,0,17.4,3.4,17.4,19.7v29.6h-15.8v-31.2c0-4.5-3-6-6.2-6
			c-3.7,0-6.7,2.7-6.7,7.5v29.7h-15.8v-68.1H268.7L268.7,294.2z"/>
		<path id="Fill-1" d="M194.1,329.7c0-22.4,16-33.9,37.1-33.9c8.6,0.4,16.3,3.2,19.9,5.8l-5.4,11.5c0,0-6.5-3.8-15.3-3.8
			c-11.3,0-18.3,8.8-18.3,20.4c0,11.7,7,20.4,18.3,20.4c8.4,0,15.3-3.6,15.3-3.6l5.4,11.4c-3.6,2.6-11.4,5.2-19.9,5.7
			C210,363.6,194.1,352,194.1,329.7"/>
		<path id="Path" class="st0" d="M94.8,245.5c-38.3,0-69.5,31.1-69.5,69.4c0,50.5,57.3,83.8,59.8,86.3c0,0,5.8,4.3,9.3,4.3
			c2.3,0,8.5-4.3,8.5-4.3c2.5-2.5,61.3-35.8,61.3-86.3C164.2,276.7,133.1,245.5,94.8,245.5L94.8,245.5z M95.2,362.7
			c-26.8,0-48.5-21.7-48.5-48.5c0-26.8,21.7-48.5,48.5-48.5s48.5,21.7,48.5,48.5C143.7,341,122,362.7,95.2,362.7L95.2,362.7z"/>
		<path id="Path_1_" class="st0" d="M72.6,291.8c0,0,0.1,0.1,0.1,0.1l12.9,11.7l5.2-5.4l-11.7-12.8c0,0-0.1-0.1-0.1-0.1
			c0,0,0-0.1-0.1-0.1c-1.8-1.8-4.7-1.8-6.5,0C70.7,287.1,70.7,290,72.6,291.8C72.6,291.8,72.6,291.8,72.6,291.8"/>
		<path id="Path_2_" class="st0" d="M128.3,329.1L128.3,329.1c0.1,0.1-3.6-10.5-13.1-15c-1.1-0.6-2.2-1-3.3-1.2
			c-0.2-0.1-0.5-0.1-0.5-0.1c-1.1-0.2-3.3-0.1-3.3-0.1s-3.3,0.6-5.2-1.3l-3.4-3.7l16.8-15.5c0,0,0.1-0.1,0.1-0.1c0,0,0.1,0,0.1-0.1
			c1.8-1.8,1.8-4.7,0-6.5c-1.8-1.8-4.7-1.8-6.5,0c0,0,0,0.1-0.1,0.1c0,0-0.1,0.1-0.1,0.1l-25,27.1c-1.9,1.9-5,1.2-5,1.2
			c-3.8-0.8-8.2,0.5-12.1,4.4c-5.9,5.9-8.9,16.1-4.5,20.5c4.4,4.4,14.6,1.4,20.5-4.5c3.9-3.9,5.2-8.3,4.4-12.1c0,0-0.7-3.1,1.1-5
			l5.4-5l3.9,3.6c1.9,1.9,1.3,5.2,1.3,5.2c-0.1,1,0.1,3.2,0.1,3.2c0,0,0,0,0,0c0.2,1.4,0.8,2.7,1.5,4.1c4.6,9.1,14.9,12.7,14.9,12.7
			c0.9,0.3,1.8,0.6,2.7,0.8c0,0,0.5,0.1,0.8-0.2c0.3-0.3,0.3-0.7,0.1-1l-12.6-13.8h0c-0.4-0.5-0.4-1.2,0.1-1.7
			c0.5-0.5,1.2-0.5,1.6-0.1l0,0c0.5,0.4,9.6,8.7,14.1,12.4c0,0,0.1,0,0.1,0c0.4,0.2,0.9,0.1,1.3-0.2c0.4-0.4,0.4-0.9,0.2-1.3
			c0-0.1,0-0.1-0.1-0.2c-3.6-4.4-11.9-13.4-12.3-13.9l0,0c-0.4-0.5-0.4-1.2,0.1-1.6c0.5-0.5,1.2-0.5,1.7-0.1v0l13.6,12.4
			c0.3,0.3,0.8,0.3,1.1,0c0.2-0.2,0.3-0.6,0.2-0.7c0-0.1,0-0.2-0.1-0.3C128.9,330.7,128.6,329.9,128.3,329.1"/>
	</g>
</g>
</svg>
